<?xml version="1.0" encoding="UTF-8" standalone="no"?>
<svg
   xmlns:dc="http://purl.org/dc/elements/1.1/"
   xmlns:cc="http://creativecommons.org/ns#"
   xmlns:rdf="http://www.w3.org/1999/02/22-rdf-syntax-ns#"
   xmlns:svg="http://www.w3.org/2000/svg"
   xmlns="http://www.w3.org/2000/svg"
   version="1.1"
   id="svg2"
   viewBox="0 0 572.68236 238.90987"
   height="67.425674mm"
   width="161.62369mm">
  <defs
     id="defs4">
    <clipPath
       clipPathUnits="userSpaceOnUse"
       id="clipPath4150">
      <path
         d="m 0,595.28 841.89,0 L 841.89,0 0,0 0,595.28 Z"
         id="path4152" />
    </clipPath>
  </defs>
  <metadata
     id="metadata7">
    <rdf:RDF>
      <cc:Work
         rdf:about="">
        <dc:format>image/svg+xml</dc:format>
        <dc:type
           rdf:resource="http://purl.org/dc/dcmitype/StillImage" />
        <dc:title></dc:title>
      </cc:Work>
    </rdf:RDF>
  </metadata>
  <g
     transform="translate(506.44268,-353.36283)"
     id="layer1">
    <g
       style="fill:#ffffff"
       transform="matrix(1.25,0,0,-1.25,-475.20518,458.69933)"
       id="g4206">
      <path
         id="path4208"
         style="fill:#ffffff;fill-opacity:1;fill-rule:nonzero;stroke:none"
         d="m 0,0 c 0,0.427 -0.107,1.062 -0.315,1.914 -0.214,0.742 -0.588,1.323 -1.114,1.749 -0.536,0.421 -1.382,0.741 -2.547,0.954 l -9.554,0 c -4.671,0 -7.003,-2.703 -7.003,-8.117 l 0,-20.531 c 0,-5.522 2.332,-8.277 7.003,-8.277 l 5.572,0 c 5.197,0 7.801,2.6 7.801,7.796 0,7.216 0.021,12.467 0.079,15.756 C -0.028,-5.463 0,-3.233 0,-2.062 L 0,0 Z m 2.388,-37.246 -0.957,0 c -0.741,0 -1.431,0.691 -2.069,2.065 -2.866,-1.374 -5.252,-2.065 -7.163,-2.065 l -5.729,0 c -3.608,0 -6.421,1.162 -8.439,3.502 -2.015,2.329 -3.021,5.522 -3.021,9.549 l 0,20.695 c 0,4.032 1.006,7.215 3.021,9.549 2.018,2.334 4.831,3.504 8.439,3.504 l 15.918,0 c 1.27,0 1.909,-0.642 1.909,-1.908 l 0,-42.826 c 0,-1.374 -0.639,-2.065 -1.909,-2.065" />
    </g>
    <g
       style="fill:#ffffff"
       transform="matrix(1.25,0,0,-1.25,-422.27618,463.27208)"
       id="g4210">
      <path
         id="path4212"
         style="fill:#ffffff;fill-opacity:1;fill-rule:nonzero;stroke:none"
         d="m 0,0 c 0,5.41 -2.335,8.114 -7.003,8.114 l -5.732,0 c -4.99,0 -7.483,-2.542 -7.483,-7.636 l 0,-21.806 c 0,-5.096 2.493,-7.644 7.483,-7.644 l 5.732,0 c 4.668,0 7.003,2.709 7.003,8.118 L 0,0 Z m -7.003,-34.223 -5.732,0 c -1.169,0 -2.26,0.156 -3.264,0.48 -1.009,0.314 -2.419,1 -4.219,2.069 l 0,-14.008 c 0,-0.529 -0.157,-1.012 -0.479,-1.432 -0.317,-0.426 -0.739,-0.639 -1.273,-0.639 l -1.11,0 c -0.535,0 -0.935,0.213 -1.191,0.639 -0.275,0.42 -0.405,0.903 -0.405,1.432 l 0,56.985 c 0,0.528 0.13,0.979 0.405,1.348 0.256,0.375 0.656,0.56 1.191,0.56 l 1.11,0 c 0.321,0 0.614,-0.134 0.877,-0.395 0.261,-0.272 0.66,-0.826 1.197,-1.672 2.65,1.379 5.039,2.067 7.161,2.067 l 5.732,0 c 3.5,0 6.309,-1.107 8.436,-3.343 C 3.552,7.642 4.611,4.348 4.611,0 l 0,-21.014 c 0,-4.454 -1.059,-7.773 -3.178,-9.95 -2.127,-2.171 -4.936,-3.259 -8.436,-3.259" />
    </g>
    <g
       style="fill:#ffffff"
       transform="matrix(1.25,0,0,-1.25,-386.4698,452.92783)"
       id="g4214">
      <path
         id="path4216"
         style="fill:#ffffff;fill-opacity:1;fill-rule:nonzero;stroke:none"
         d="m 0,0 -2.857,0 c -2.126,0 -3.771,-0.82 -4.934,-2.465 -1.171,-1.646 -1.753,-3.791 -1.753,-6.449 l 0,-30.884 c 0,-1.374 -0.535,-2.065 -1.589,-2.065 l -0.959,0 c -0.849,0 -1.272,0.691 -1.272,2.065 l 0,42.825 c 0,1.267 0.423,1.909 1.272,1.909 l 0.959,0 c 0.42,0 0.74,-0.108 0.952,-0.319 0.208,-0.21 0.534,-0.851 0.954,-1.907 1.375,0.74 2.52,1.297 3.425,1.666 0.892,0.375 1.93,0.56 3.095,0.56 l 2.707,0 c 0.427,0 0.796,-0.185 1.122,-0.56 0.315,-0.369 0.473,-0.82 0.473,-1.349 l 0,-1.112 C 1.595,0.637 1.067,0 0,0" />
    </g>
    <g
       style="fill:#ffffff"
       transform="matrix(1.25,0,0,-1.25,-340.8973,463.07433)"
       id="g4218">
      <path
         id="path4220"
         style="fill:#ffffff;fill-opacity:1;fill-rule:nonzero;stroke:none"
         d="m 0,0 c 0,5.414 -2.386,8.117 -7.166,8.117 l -6.842,0 c -4.669,0 -7.004,-2.703 -7.004,-8.117 l 0,-8.273 L 0,-8.273 0,0 Z m 2.703,-13.211 -23.715,0 0,-7.32 c 0,-5.522 2.335,-8.277 7.004,-8.277 l 16.078,0 c 1.27,0 1.906,-0.639 1.906,-1.915 l 0,-1.109 c 0,-0.643 -0.212,-1.115 -0.636,-1.428 -0.426,-0.327 -0.848,-0.486 -1.27,-0.486 l -16.078,0 c -3.61,0 -6.424,1.162 -8.438,3.502 -2.018,2.329 -3.023,5.522 -3.023,9.549 l 0,20.695 c 0,4.032 1.005,7.215 3.023,9.549 2.014,2.334 4.828,3.504 8.438,3.504 l 6.842,0 c 3.716,0 6.579,-1.17 8.598,-3.504 C 3.448,7.215 4.459,4.032 4.459,0 l 0,-10.979 c 0,-1.494 -0.587,-2.232 -1.756,-2.232" />
    </g>
    <g
       style="fill:#ffffff"
       transform="matrix(1.25,0,0,-1.25,-286.38255,505.25695)"
       id="g4222">
      <path
         id="path4224"
         style="fill:#ffffff;fill-opacity:1;fill-rule:nonzero;stroke:none"
         d="m 0,0 -1.114,0 c -1.058,0 -1.593,0.691 -1.593,2.065 l 0,31.681 c 0,5.414 -2.336,8.117 -7,8.117 l -5.732,0 c -4.99,0 -7.482,-2.595 -7.482,-7.798 l 0,-32 C -22.921,0.691 -23.51,0 -24.67,0 l -1.117,0 c -1.06,0 -1.589,0.691 -1.589,2.065 l 0,42.826 c 0,0.528 0.128,0.979 0.392,1.348 0.268,0.375 0.665,0.56 1.197,0.56 l 1.117,0 c 0.313,0 0.607,-0.134 0.875,-0.395 0.264,-0.272 0.659,-0.826 1.191,-1.673 2.444,1.38 4.827,2.068 7.165,2.068 l 5.732,0 c 3.496,0 6.309,-1.17 8.43,-3.504 2.129,-2.334 3.188,-5.517 3.188,-9.549 l 0,-31.681 C 1.911,0.691 1.276,0 0,0" />
    </g>
    <g
       style="fill:#ffffff"
       transform="matrix(1.25,0,0,-1.25,-239.2268,462.07833)"
       id="g4226">
      <path
         id="path4228"
         style="fill:#ffffff;fill-opacity:1;fill-rule:nonzero;stroke:none"
         d="m 0,0 c 0,5.299 -2.604,7.957 -7.804,7.957 l -5.565,0 c -4.672,0 -7.008,-2.761 -7.008,-8.275 l 0,-20.695 c 0,-5.52 2.336,-8.274 7.008,-8.274 l 5.565,0 c 5.2,0 7.804,2.547 7.804,7.64 L 0,0 Z m 2.549,-34.543 -0.959,0 c -0.536,0 -0.904,0.107 -1.118,0.317 -0.21,0.214 -0.528,0.845 -0.951,1.913 -1.486,-0.852 -2.76,-1.431 -3.82,-1.744 -1.061,-0.327 -2.175,-0.486 -3.344,-0.486 l -5.726,0 c -3.612,0 -6.426,1.113 -8.44,3.349 -2.017,2.22 -3.022,5.566 -3.022,10.025 l 0,20.851 c 0,4.351 1.005,7.67 3.022,9.95 2.014,2.277 4.828,3.42 8.44,3.42 l 5.726,0 c 1.169,0 2.283,-0.159 3.344,-0.478 1.06,-0.318 2.488,-1.006 4.299,-2.067 l 0,17.351 c 0,1.377 0.532,2.067 1.59,2.067 l 0.959,0 c 1.268,0 1.907,-0.69 1.907,-2.067 l 0,-60.336 c 0,-1.374 -0.639,-2.065 -1.907,-2.065" />
    </g>
    <g
       style="fill:#ffffff"
       transform="matrix(1.25,0,0,-1.25,-211.96605,505.25695)"
       id="g4230">
      <path
         id="path4232"
         style="fill:#ffffff;fill-opacity:1;fill-rule:nonzero;stroke:none"
         d="m 0,0 -4.456,0 c -0.216,0 -0.246,0.238 -0.088,0.717 0.164,0.476 0.247,0.924 0.247,1.348 l 0,43.461 c 0,0.524 -0.083,1.009 -0.247,1.432 -0.158,0.427 -0.128,0.637 0.088,0.637 l 4.456,0 c 0.21,0 0.292,-0.21 0.236,-0.637 C 0.18,46.535 0.158,46.05 0.158,45.526 l 0,-43.461 C 0.158,1.641 0.18,1.193 0.236,0.717 0.292,0.238 0.21,0 0,0 m 0,52.849 -4.456,0 c -0.216,0 -0.246,0.266 -0.088,0.799 0.164,0.529 0.247,1.001 0.247,1.426 l 0,7.169 c 0,0.522 -0.083,1.009 -0.247,1.428 -0.158,0.424 -0.128,0.638 0.088,0.638 l 4.456,0 c 0.21,0 0.292,-0.214 0.236,-0.638 C 0.18,63.252 0.158,62.765 0.158,62.243 l 0,-7.169 c 0,-0.425 0.022,-0.897 0.078,-1.426 C 0.292,53.115 0.21,52.849 0,52.849" />
    </g>
    <g
       style="fill:#ffffff"
       transform="matrix(1.25,0,0,-1.25,-167.2053,505.25695)"
       id="g4234">
      <path
         id="path4236"
         style="fill:#ffffff;fill-opacity:1;fill-rule:nonzero;stroke:none"
         d="m 0,0 -23.399,0 c -0.537,0 -0.983,0.127 -1.357,0.396 -0.369,0.269 -0.56,0.766 -0.56,1.518 l 0,0.952 c 0,0.421 0.164,0.848 0.484,1.272 l 20.216,37.725 -18.467,0 c -1.059,0 -1.59,0.637 -1.59,1.915 l 0,1.113 c 0,0.528 0.127,0.979 0.401,1.348 0.255,0.375 0.658,0.56 1.189,0.56 l 22.608,0 c 0.415,0 0.818,-0.134 1.188,-0.395 0.371,-0.272 0.556,-0.775 0.556,-1.513 l 0,-1.113 c 0,-0.322 -0.103,-0.698 -0.316,-1.117 L -19.422,4.938 0,4.938 C 0.528,4.938 0.953,4.749 1.269,4.38 1.593,4.005 1.753,3.55 1.753,3.023 l 0,-1.109 C 1.753,0.634 1.166,0 0,0" />
    </g>
    <g
       style="fill:#ffffff"
       transform="matrix(1.25,0,0,-1.25,-122.83893,458.69933)"
       id="g4238">
      <path
         id="path4240"
         style="fill:#ffffff;fill-opacity:1;fill-rule:nonzero;stroke:none"
         d="m 0,0 c 0,0.427 -0.103,1.062 -0.314,1.914 -0.215,0.742 -0.587,1.323 -1.115,1.749 -0.532,0.421 -1.38,0.741 -2.549,0.954 l -9.546,0 c -4.676,0 -7.006,-2.703 -7.006,-8.117 l 0,-20.531 c 0,-5.522 2.33,-8.277 7.006,-8.277 l 5.566,0 c 5.2,0 7.803,2.6 7.803,7.796 0,7.216 0.021,12.467 0.073,15.756 C -0.021,-5.463 0,-3.233 0,-2.062 L 0,0 Z m 2.393,-37.246 -0.961,0 c -0.743,0 -1.432,0.691 -2.072,2.065 -2.862,-1.374 -5.25,-2.065 -7.159,-2.065 l -5.725,0 c -3.613,0 -6.423,1.162 -8.444,3.502 -2.013,2.329 -3.017,5.522 -3.017,9.549 l 0,20.695 c 0,4.032 1.004,7.215 3.017,9.549 2.021,2.334 4.831,3.504 8.444,3.504 l 15.917,0 c 1.27,0 1.909,-0.642 1.909,-1.908 l 0,-42.826 c 0,-1.374 -0.639,-2.065 -1.909,-2.065" />
    </g>
    <g
       style="fill:#ffffff"
       transform="matrix(1.25,0,0,-1.25,-88.81543,453.32095)"
       id="g4242">
      <path
         id="path4244"
         style="fill:#ffffff;fill-opacity:1;fill-rule:nonzero;stroke:none"
         d="m 0,0 c -2.439,0 -4.137,-0.665 -5.094,-1.99 -0.952,-1.327 -1.424,-3.368 -1.424,-6.13 l 0,-17.987 c 0,-5.521 2.269,-8.278 6.836,-8.278 l 5.732,0 c 4.881,0 7.326,2.65 7.326,7.958 L 13.854,0.153 0,0 Z m 6.526,-53.805 -14.008,0 c -0.421,0 -0.822,0.162 -1.19,0.48 -0.372,0.317 -0.562,0.847 -0.562,1.59 l 0,1.113 c 0,1.272 0.586,1.914 1.752,1.914 l 14.008,0 c 4.672,0 7.006,2.812 7.006,8.431 l 0,2.866 c -1.7,-0.851 -3.132,-1.411 -4.299,-1.665 -1.167,-0.269 -2.227,-0.407 -3.183,-0.407 l -5.732,0 c -3.499,0 -6.286,1.118 -8.35,3.344 -2.072,2.233 -3.112,5.57 -3.112,10.032 l 0,17.987 c 0,4.456 1.04,7.801 3.112,10.027 2.064,2.236 4.851,3.343 8.35,3.343 l 16.082,0 c 0.53,0 0.953,-0.185 1.27,-0.56 0.317,-0.369 0.479,-0.82 0.479,-1.348 l 0,-43.778 c 0,-4.457 -1.066,-7.8 -3.186,-10.027 -2.123,-2.228 -4.933,-3.342 -8.437,-3.342" />
    </g>
    <g
       style="fill:#ffffff"
       transform="matrix(1.25,0,0,-1.25,-20.36693,463.07433)"
       id="g4246">
      <path
         id="path4248"
         style="fill:#ffffff;fill-opacity:1;fill-rule:nonzero;stroke:none"
         d="m 0,0 c 0,5.414 -2.391,8.117 -7.159,8.117 l -6.848,0 c -4.671,0 -7.001,-2.703 -7.001,-8.117 l 0,-8.273 L 0,-8.273 0,0 Z m 2.711,-13.211 -23.719,0 0,-7.32 c 0,-5.522 2.33,-8.277 7.001,-8.277 l 16.075,0 c 1.269,0 1.911,-0.639 1.911,-1.915 l 0,-1.109 c 0,-0.643 -0.214,-1.115 -0.642,-1.428 -0.417,-0.327 -0.846,-0.486 -1.269,-0.486 l -16.075,0 c -3.611,0 -6.427,1.162 -8.441,3.502 -2.012,2.329 -3.02,5.522 -3.02,9.549 l 0,20.695 c 0,4.032 1.008,7.215 3.02,9.549 2.014,2.334 4.83,3.504 8.441,3.504 l 6.848,0 c 3.715,0 6.574,-1.17 8.589,-3.504 C 3.447,7.215 4.455,4.032 4.455,0 l 0,-10.979 c 0,-1.494 -0.582,-2.232 -1.744,-2.232" />
    </g>
    <g
       style="fill:#ffffff"
       transform="matrix(1.25,0,0,-1.25,63.60157,505.25695)"
       id="g4250">
      <path
         id="path4252"
         style="fill:#ffffff;fill-opacity:1;fill-rule:nonzero;stroke:none"
         d="m 0,0 -1.122,0 c -0.627,0 -1.083,0.208 -1.348,0.634 -0.262,0.426 -0.4,0.903 -0.4,1.431 l 0,31.681 c 0,5.414 -2.54,8.117 -7.642,8.117 l -3.177,0 c -2.66,0 -4.728,-0.713 -6.209,-2.145 -1.487,-1.44 -2.228,-3.425 -2.228,-5.972 l 0,-31.681 c 0,-0.528 -0.165,-1.005 -0.482,-1.431 C -22.923,0.208 -23.35,0 -23.881,0 l -1.269,0 c -1.172,0 -1.755,0.691 -1.755,2.065 l 0,31.681 c 0,5.414 -2.546,8.117 -7.639,8.117 l -3.502,0 c -5.305,0 -7.961,-2.595 -7.961,-7.798 l 0,-32 C -46.007,0.691 -46.694,0 -48.074,0 l -1.115,0 c -0.639,0 -1.09,0.208 -1.356,0.634 -0.261,0.426 -0.394,0.903 -0.394,1.431 l 0,42.826 c 0,0.528 0.133,0.979 0.394,1.348 0.266,0.375 0.717,0.56 1.356,0.56 l 1.115,0 c 0.424,0 0.819,-0.108 1.187,-0.319 0.377,-0.209 0.829,-0.743 1.362,-1.589 1.378,0.738 2.646,1.241 3.815,1.513 1.169,0.261 2.335,0.395 3.504,0.395 l 3.662,0 c 3.821,0 7.214,-1.539 10.187,-4.612 1.804,1.795 3.584,3.021 5.332,3.655 1.755,0.638 3.526,0.957 5.336,0.957 l 3.177,0 c 3.829,0 6.873,-1.17 9.156,-3.504 2.282,-2.334 3.424,-5.517 3.424,-9.549 l 0,-31.681 C 2.068,0.691 1.379,0 0,0" />
    </g>
    <g
       style="fill:#ffffff"
       transform="matrix(1.25,0,0,-1.25,-192.21631,592.27233)"
       id="g4254">
      <path
         id="path4256"
         style="fill:#ffffff;fill-opacity:1;fill-rule:nonzero;stroke:none"
         d="m 0,0 -10.506,0 c -3.398,0 -6.1,1.164 -8.117,3.504 -2.021,2.328 -3.029,5.518 -3.029,9.55 l 0,20.694 c 0,4.029 1.008,7.213 3.029,9.549 2.017,2.332 4.719,3.504 8.117,3.504 l 10.506,0 c 1.169,0 1.754,-0.642 1.754,-1.914 l 0,-1.11 C 1.754,43.139 1.563,42.66 1.192,42.343 0.825,42.029 0.42,41.862 0,41.862 l -10.506,0 c -4.459,0 -6.683,-2.706 -6.683,-8.114 l 0,-20.532 c 0,-5.527 2.224,-8.282 6.683,-8.282 L 0,4.934 c 1.169,0 1.754,-0.636 1.754,-1.908 l 0,-1.118 C 1.754,1.164 1.563,0.661 1.192,0.395 0.825,0.129 0.42,0 0,0" />
    </g>
    <g
       style="fill:#ffffff"
       transform="matrix(1.25,0,0,-1.25,-161.77693,539.94445)"
       id="g4258">
      <path
         id="path4260"
         style="fill:#ffffff;fill-opacity:1;fill-rule:nonzero;stroke:none"
         d="m 0,0 -2.865,0 c -2.124,0 -3.77,-0.822 -4.934,-2.465 -1.166,-1.646 -1.747,-3.793 -1.747,-6.448 l 0,-30.882 c 0,-1.38 -0.541,-2.067 -1.595,-2.067 l -0.953,0 c -0.854,0 -1.279,0.687 -1.279,2.067 l 0,42.819 c 0,1.273 0.425,1.914 1.279,1.914 l 0.953,0 c 0.425,0 0.742,-0.108 0.956,-0.318 0.21,-0.216 0.53,-0.853 0.952,-1.908 1.383,0.741 2.52,1.292 3.422,1.661 0.905,0.377 1.936,0.565 3.102,0.565 L 0,4.938 C 0.424,4.938 0.798,4.75 1.118,4.373 1.437,4.004 1.59,3.559 1.59,3.024 l 0,-1.109 C 1.59,0.639 1.06,0 0,0" />
    </g>
    <g
       style="fill:#ffffff"
       transform="matrix(1.25,0,0,-1.25,-141.68168,592.27233)"
       id="g4262">
      <path
         id="path4264"
         style="fill:#ffffff;fill-opacity:1;fill-rule:nonzero;stroke:none"
         d="m 0,0 -4.459,0 c -0.213,0 -0.237,0.24 -0.078,0.718 0.161,0.476 0.242,0.926 0.242,1.349 l 0,43.459 c 0,0.525 -0.081,1.007 -0.242,1.434 -0.159,0.425 -0.135,0.635 0.078,0.635 l 4.459,0 c 0.216,0 0.291,-0.21 0.244,-0.635 C 0.185,46.533 0.161,46.051 0.161,45.526 l 0,-43.459 C 0.161,1.644 0.185,1.194 0.244,0.718 0.291,0.24 0.216,0 0,0 m 0,52.85 -4.459,0 c -0.213,0 -0.237,0.261 -0.078,0.794 0.161,0.535 0.242,1.005 0.242,1.433 l 0,7.167 c 0,0.523 -0.081,0.999 -0.242,1.427 -0.159,0.424 -0.135,0.641 0.078,0.641 l 4.459,0 c 0.216,0 0.291,-0.217 0.244,-0.641 C 0.185,63.243 0.161,62.767 0.161,62.244 l 0,-7.167 c 0,-0.428 0.024,-0.898 0.083,-1.433 C 0.291,53.111 0.216,52.85 0,52.85" />
    </g>
    <g
       style="fill:#ffffff"
       transform="matrix(1.25,0,0,-1.25,-95.717305,545.71233)"
       id="g4266">
      <path
         id="path4268"
         style="fill:#ffffff;fill-opacity:1;fill-rule:nonzero;stroke:none"
         d="M 0,0 C 0,0.42 -0.103,1.062 -0.314,1.908 -0.529,2.654 -0.901,3.236 -1.435,3.66 -1.961,4.083 -2.813,4.404 -3.979,4.614 l -9.552,0 c -4.671,0 -7.005,-2.706 -7.005,-8.114 l 0,-20.532 c 0,-5.527 2.334,-8.282 7.005,-8.282 l 5.572,0 c 5.195,0 7.793,2.596 7.793,7.799 0,7.219 0.031,12.471 0.083,15.76 C -0.031,-5.47 0,-3.239 0,-2.063 L 0,0 Z m 2.387,-37.248 -0.956,0 c -0.742,0 -1.431,0.687 -2.07,2.067 -2.866,-1.38 -5.252,-2.067 -7.161,-2.067 l -5.731,0 c -3.608,0 -6.417,1.164 -8.436,3.504 -2.016,2.328 -3.024,5.518 -3.024,9.55 l 0,20.694 c 0,4.029 1.008,7.213 3.024,9.549 2.019,2.332 4.828,3.504 8.436,3.504 l 15.918,0 c 1.275,0 1.91,-0.642 1.91,-1.914 l 0,-42.82 c 0,-1.38 -0.635,-2.067 -1.91,-2.067" />
    </g>
    <g
       style="fill:#ffffff"
       transform="matrix(1.25,0,0,-1.25,-52.736305,592.27233)"
       id="g4270">
      <path
         id="path4272"
         style="fill:#ffffff;fill-opacity:1;fill-rule:nonzero;stroke:none"
         d="m 0,0 -2.707,0 c -3.506,0 -6.318,1.164 -8.438,3.504 -2.129,2.328 -3.183,5.518 -3.183,9.55 l 0,29.126 -4.459,0 c -1.059,0 -1.59,0.643 -1.59,1.918 l 0,1.106 c 0,1.382 0.531,2.073 1.59,2.073 l 4.459,0 0,6.208 c 0,0.53 0.154,1.036 0.475,1.514 0.318,0.479 0.745,0.713 1.276,0.713 l 1.115,0 c 0.525,0 0.921,-0.234 1.187,-0.713 0.27,-0.478 0.402,-0.984 0.402,-1.514 l 0,-6.208 9.076,0 c 1.169,0 1.748,-0.691 1.748,-2.073 l 0,-1.106 c 0,-0.751 -0.184,-1.25 -0.556,-1.52 C 0.014,42.315 -0.377,42.18 -0.797,42.18 l -9.076,0 0,-29.126 c 0,-5.309 2.394,-7.956 7.166,-7.956 l 2.707,0 c 1.165,0 1.744,-0.64 1.744,-1.91 l 0,-1.28 C 1.744,1.164 1.56,0.661 1.187,0.395 0.817,0.129 0.424,0 0,0" />
    </g>
    <g
       style="fill:#ffffff"
       transform="matrix(1.25,0,0,-1.25,-33.04268,592.27233)"
       id="g4274">
      <path
         id="path4276"
         style="fill:#ffffff;fill-opacity:1;fill-rule:nonzero;stroke:none"
         d="m 0,0 -4.453,0 c -0.216,0 -0.244,0.24 -0.084,0.718 0.156,0.476 0.238,0.926 0.238,1.349 l 0,43.459 c 0,0.525 -0.082,1.007 -0.238,1.434 -0.16,0.425 -0.132,0.635 0.084,0.635 l 4.453,0 c 0.21,0 0.29,-0.21 0.239,-0.635 C 0.181,46.533 0.158,46.051 0.158,45.526 l 0,-43.459 C 0.158,1.644 0.181,1.194 0.239,0.718 0.29,0.24 0.21,0 0,0 m 0,52.85 -4.453,0 c -0.216,0 -0.244,0.261 -0.084,0.794 0.156,0.535 0.238,1.005 0.238,1.433 l 0,7.167 c 0,0.523 -0.082,0.999 -0.238,1.427 -0.16,0.424 -0.132,0.641 0.084,0.641 l 4.453,0 c 0.21,0 0.29,-0.217 0.239,-0.641 C 0.181,63.243 0.158,62.767 0.158,62.244 l 0,-7.167 c 0,-0.428 0.023,-0.898 0.081,-1.433 C 0.29,53.111 0.21,52.85 0,52.85" />
    </g>
    <g
       style="fill:#ffffff"
       transform="matrix(1.25,0,0,-1.25,2.37232,590.27895)"
       id="g4278">
      <path
         id="path4280"
         style="fill:#ffffff;fill-opacity:1;fill-rule:nonzero;stroke:none"
         d="m 0,0 c -0.43,-1.065 -1.004,-1.595 -1.744,-1.595 l -1.919,0 c -0.531,0 -0.928,0.187 -1.193,0.558 -0.266,0.372 -0.45,0.663 -0.558,0.877 l -12.414,42.815 c -0.318,1.695 0.214,2.551 1.592,2.551 l 1.274,0 c 0.524,0 0.932,-0.162 1.192,-0.476 0.265,-0.32 0.451,-0.588 0.558,-0.798 L -2.711,6.207 c 1.382,5.306 2.69,10.022 3.908,14.166 1.217,4.139 2.303,7.906 3.261,11.299 l 3.663,12.26 c 0,0.102 0.103,0.339 0.314,0.709 0.212,0.377 0.586,0.565 1.118,0.565 l 1.269,0 c 1.382,0 1.913,-0.856 1.596,-2.551 L 0,0 Z" />
    </g>
    <g
       style="fill:#ffffff"
       transform="matrix(1.25,0,0,-1.25,60.864695,545.71233)"
       id="g4282">
      <path
         id="path4284"
         style="fill:#ffffff;fill-opacity:1;fill-rule:nonzero;stroke:none"
         d="M 0,0 C 0,0.42 -0.107,1.062 -0.312,1.908 -0.528,2.654 -0.899,3.236 -1.428,3.66 -1.964,4.083 -2.813,4.404 -3.976,4.614 l -9.546,0 c -4.673,0 -7.006,-2.706 -7.006,-8.114 l 0,-20.532 c 0,-5.527 2.333,-8.282 7.006,-8.282 l 5.566,0 c 5.2,0 7.798,2.596 7.798,7.799 0,7.219 0.026,12.471 0.082,15.76 C -0.029,-5.47 0,-3.239 0,-2.063 L 0,0 Z m 2.39,-37.248 -0.952,0 c -0.748,0 -1.438,0.687 -2.072,2.067 -2.864,-1.38 -5.249,-2.067 -7.163,-2.067 l -5.725,0 c -3.613,0 -6.427,1.164 -8.439,3.504 -2.02,2.328 -3.03,5.518 -3.03,9.55 l 0,20.694 c 0,4.029 1.01,7.213 3.03,9.549 2.012,2.332 4.826,3.504 8.439,3.504 l 15.912,0 c 1.273,0 1.91,-0.642 1.91,-1.914 l 0,-42.82 c 0,-1.38 -0.637,-2.067 -1.91,-2.067" />
    </g>
    <g
       style="fill:#ffffff"
       transform="matrix(1.25,0,0,-1.25,-488.15693,374.43358)"
       id="g4288">
      <path
         id="path4290"
         style="fill:#ffffff;fill-opacity:1;fill-rule:nonzero;stroke:none"
         d="M 0,0 -2.262,0 C -4.194,0 -5.659,-0.755 -6.664,-2.265 -7.672,-3.774 -8.175,-5.62 -8.175,-7.798 l 0,-25.161 c 0,-0.587 -0.065,-0.923 -0.187,-1.007 -0.129,-0.083 -0.278,-0.123 -0.441,-0.123 l -0.757,0 c -0.334,0 -0.503,0.373 -0.503,1.13 l 0,34.847 c 0,0.67 0.169,1.006 0.503,1.006 l 0.757,0 c 0.251,0 0.418,-0.126 0.502,-0.377 0.081,-0.254 0.293,-0.839 0.629,-1.76 1.422,0.834 2.493,1.4 3.208,1.696 0.712,0.294 1.485,0.441 2.328,0.441 L 0,2.894 C 0.083,2.894 0.21,2.809 0.38,2.642 0.544,2.47 0.632,2.222 0.632,1.888 l 0,-0.88 C 0.632,0.336 0.421,0 0,0" />
    </g>
    <g
       style="fill:#ffffff"
       transform="matrix(1.25,0,0,-1.25,-451.52118,383.39908)"
       id="g4292">
      <path
         id="path4294"
         style="fill:#ffffff;fill-opacity:1;fill-rule:nonzero;stroke:none"
         d="m 0,0 c 0,2.268 -0.503,4.027 -1.511,5.287 -1.004,1.256 -2.557,1.885 -4.654,1.885 l -5.408,0 c -2.098,0 -3.646,-0.629 -4.652,-1.885 -1.01,-1.26 -1.509,-3.019 -1.509,-5.287 l 0,-7.296 L 0,-7.296 0,0 Z m 1.636,-10.187 -19.37,0 0,-6.541 c 0,-4.866 2.053,-7.296 6.161,-7.296 l 12.706,0 c 0.586,0 0.881,-0.339 0.881,-1.008 l 0,-0.88 c 0,-0.671 -0.295,-1.005 -0.881,-1.005 l -12.706,0 c -2.685,0 -4.778,0.879 -6.289,2.642 -1.509,1.76 -2.263,4.233 -2.263,7.421 l 0,16.854 c 0,3.188 0.754,5.662 2.263,7.424 1.511,1.759 3.604,2.642 6.289,2.642 l 5.408,0 c 2.686,0 4.782,-0.883 6.291,-2.642 C 1.636,5.662 2.391,3.188 2.391,0 l 0,-8.93 c 0,-0.839 -0.252,-1.257 -0.755,-1.257" />
    </g>
    <g
       style="fill:#ffffff"
       transform="matrix(1.25,0,0,-1.25,-411.89468,382.76858)"
       id="g4296">
      <path
         id="path4298"
         style="fill:#ffffff;fill-opacity:1;fill-rule:nonzero;stroke:none"
         d="m 0,0 c 0,4.613 -2.222,6.919 -6.667,6.919 l -4.405,0 c -2.096,0 -3.644,-0.631 -4.652,-1.885 -1.006,-1.26 -1.509,-3.019 -1.509,-5.284 l 0,-16.731 c 0,-2.265 0.503,-4.069 1.509,-5.408 1.008,-1.344 2.556,-2.016 4.652,-2.016 l 4.405,0 c 4.445,0 6.667,2.306 6.667,6.921 L 0,0 Z m 1.511,-27.421 -0.756,0 c -0.252,0 -0.442,0.123 -0.565,0.373 -0.129,0.255 -0.358,0.84 -0.693,1.766 -1.426,-0.926 -2.578,-1.511 -3.458,-1.766 -0.881,-0.25 -1.742,-0.373 -2.581,-0.373 l -4.53,0 c -2.683,0 -4.776,0.838 -6.287,2.513 -1.509,1.679 -2.265,4.279 -2.265,7.801 l 0,16.857 c 0,3.352 0.756,5.866 2.265,7.546 1.511,1.679 3.604,2.515 6.287,2.515 l 4.53,0 c 0.839,0 1.7,-0.124 2.581,-0.375 C -3.081,9.185 -1.76,8.51 0,7.425 l 0,15.094 c 0,0.669 0.251,1.005 0.755,1.005 l 0.756,0 c 0.582,0 0.88,-0.336 0.88,-1.005 l 0,-48.935 c 0,-0.672 -0.298,-1.005 -0.88,-1.005" />
    </g>
    <g
       style="fill:#ffffff"
       transform="matrix(1.25,0,0,-1.25,-370.2248,383.39908)"
       id="g4300">
      <path
         id="path4302"
         style="fill:#ffffff;fill-opacity:1;fill-rule:nonzero;stroke:none"
         d="m 0,0 c 0,2.268 -0.505,4.027 -1.51,5.287 -1.007,1.256 -2.562,1.885 -4.655,1.885 l -5.41,0 c -2.097,0 -3.648,-0.629 -4.654,-1.885 C -17.236,4.027 -17.736,2.268 -17.736,0 l 0,-7.296 L 0,-7.296 0,0 Z m 1.635,-10.187 -19.371,0 0,-6.541 c 0,-4.866 2.051,-7.296 6.161,-7.296 l 12.706,0 c 0.588,0 0.881,-0.339 0.881,-1.008 l 0,-0.88 c 0,-0.671 -0.293,-1.005 -0.881,-1.005 l -12.706,0 c -2.683,0 -4.779,0.879 -6.29,2.642 -1.508,1.76 -2.261,4.233 -2.261,7.421 l 0,16.854 c 0,3.188 0.753,5.662 2.261,7.424 1.511,1.759 3.607,2.642 6.29,2.642 l 5.41,0 c 2.684,0 4.78,-0.883 6.29,-2.642 C 1.635,5.662 2.391,3.188 2.391,0 l 0,-8.93 c 0,-0.839 -0.252,-1.257 -0.756,-1.257" />
    </g>
    <g
       style="fill:#ffffff"
       transform="matrix(1.25,0,0,-1.25,-301.5168,382.45358)"
       id="g4304">
      <path
         id="path4306"
         style="fill:#ffffff;fill-opacity:1;fill-rule:nonzero;stroke:none"
         d="m 0,0 c 0,2.181 -0.483,3.941 -1.444,5.285 -0.968,1.339 -2.498,2.011 -4.592,2.011 l -4.531,0 c -4.362,0 -6.54,-2.306 -6.54,-6.916 l 0,-25.037 11.071,0 c 2.094,0 3.624,0.672 4.592,2.016 0.961,1.339 1.444,3.143 1.444,5.408 L 0,0 Z m -6.036,-27.673 -12.706,0 c -0.506,0 -0.754,0.333 -0.754,1.005 l 0,48.935 c 0,0.67 0.248,1.005 0.754,1.005 l 0.882,0 c 0.501,0 0.753,-0.335 0.753,-1.005 l 0,-14.342 c 1.762,1.09 3.082,1.762 3.962,2.013 0.881,0.252 1.739,0.378 2.578,0.378 l 4.531,0 c 2.597,0 4.673,-0.901 6.226,-2.705 C 1.742,5.806 2.518,3.312 2.518,0.125 l 0,-17.484 c 0,-3.44 -0.776,-6.02 -2.328,-7.734 -1.553,-1.721 -3.629,-2.58 -6.226,-2.58" />
    </g>
    <g
       style="fill:#ffffff"
       transform="matrix(1.25,0,0,-1.25,-273.52793,374.43358)"
       id="g4308">
      <path
         id="path4310"
         style="fill:#ffffff;fill-opacity:1;fill-rule:nonzero;stroke:none"
         d="m 0,0 -2.262,0 c -1.932,0 -3.396,-0.755 -4.402,-2.265 -1.007,-1.509 -1.51,-3.355 -1.51,-5.533 l 0,-25.161 c 0,-0.587 -0.061,-0.923 -0.187,-1.007 -0.129,-0.083 -0.275,-0.123 -0.442,-0.123 l -0.754,0 c -0.336,0 -0.506,0.373 -0.506,1.13 l 0,34.847 c 0,0.67 0.17,1.006 0.506,1.006 l 0.754,0 c 0.252,0 0.419,-0.126 0.503,-0.377 0.085,-0.254 0.295,-0.839 0.629,-1.76 1.426,0.834 2.494,1.4 3.208,1.696 0.711,0.294 1.489,0.441 2.327,0.441 L 0,2.894 C 0.084,2.894 0.21,2.809 0.381,2.642 0.546,2.47 0.632,2.222 0.632,1.888 l 0,-0.88 C 0.632,0.336 0.42,0 0,0" />
    </g>
    <g
       style="fill:#ffffff"
       transform="matrix(1.25,0,0,-1.25,-237.6753,377.5757)"
       id="g4312">
      <path
         id="path4314"
         style="fill:#ffffff;fill-opacity:1;fill-rule:nonzero;stroke:none"
         d="m 0,0 c -0.42,1.423 -1.51,2.262 -3.269,2.514 l -7.676,0 c -2.099,0 -3.648,-0.629 -4.654,-1.886 -1.008,-1.26 -1.508,-3.019 -1.508,-5.287 l 0,-16.727 c 0,-4.867 2.053,-7.297 6.162,-7.297 l 4.405,0 c 4.442,0 6.664,2.304 6.664,6.916 0,5.87 0.023,10.149 0.065,12.834 0.04,2.681 0.063,4.529 0.063,5.534 l 0,1.697 C 0.252,-1.157 0.167,-0.59 0,0 m 1.635,-31.576 -0.754,0 c -0.17,0 -0.316,0.082 -0.442,0.251 -0.125,0.167 -0.398,0.711 -0.818,1.635 -1.425,-0.673 -2.6,-1.155 -3.522,-1.445 -0.923,-0.298 -1.76,-0.441 -2.513,-0.441 l -4.531,0 c -2.683,0 -4.779,0.88 -6.289,2.642 -1.509,1.76 -2.264,4.233 -2.264,7.422 l 0,16.853 c 0,3.189 0.755,5.662 2.264,7.424 1.51,1.759 3.606,2.642 6.289,2.642 l 12.58,0 c 0.586,0 0.881,-0.336 0.881,-1.006 l 0,-34.846 c 0,-0.503 -0.063,-0.818 -0.188,-0.941 -0.126,-0.129 -0.359,-0.19 -0.693,-0.19" />
    </g>
    <g
       style="fill:#ffffff"
       transform="matrix(1.25,0,0,-1.25,-207.79743,417.04533)"
       id="g4316">
      <path
         id="path4318"
         style="fill:#ffffff;fill-opacity:1;fill-rule:nonzero;stroke:none"
         d="m 0,0 -10.318,0 c -0.502,0 -0.753,0.333 -0.753,1.005 l 0,0.88 c 0,0.669 0.251,1.008 0.753,1.008 L 0,2.893 c 2.093,0 3.602,0.46 4.524,1.383 0.924,0.921 1.386,2.218 1.386,3.899 l 0,2.014 c 0,1.678 -0.23,2.997 -0.69,3.96 -0.465,0.965 -1.449,1.739 -2.958,2.33 l -7.924,3.27 c -2.184,0.921 -3.693,2.032 -4.531,3.334 -0.838,1.3 -1.256,3.162 -1.256,5.597 0,5.535 2.595,8.303 7.798,8.303 l 9.686,0 c 0.505,0 0.757,-0.336 0.757,-1.006 l 0,-0.879 c 0,-0.673 -0.252,-1.009 -0.757,-1.009 l -9.686,0 c -2.011,0 -3.394,-0.461 -4.15,-1.382 -0.755,-0.924 -1.132,-1.973 -1.132,-3.147 l 0,-1.887 c 0,-1.428 0.313,-2.472 0.942,-3.142 0.629,-0.675 1.656,-1.303 3.08,-1.888 L 3.02,19.244 C 5.029,18.408 6.392,17.148 7.105,15.471 7.815,13.793 8.175,11.487 8.175,8.555 8.175,5.45 7.503,3.25 6.161,1.949 4.819,0.648 2.765,0 0,0" />
    </g>
    <g
       style="fill:#ffffff"
       transform="matrix(1.25,0,0,-1.25,-182.80106,370.50533)"
       id="g4320">
      <path
         id="path4322"
         style="fill:#ffffff;fill-opacity:1;fill-rule:nonzero;stroke:none"
         d="m 0,0 c -0.081,-0.167 -0.125,-0.5 -0.125,-1.003 l 0,-35.224 c 0,-0.166 0.018,-0.336 0.064,-0.503 C -0.02,-36.898 0,-37.068 0,-37.232 c 0.083,0 0.171,-0.041 0.252,-0.125 0.083,-0.083 0.129,-0.042 0.129,0.125 l -3.02,0 0.123,0.502 0,0.503 0,35.224 c 0,0.167 -0.02,0.331 -0.061,0.503 -0.043,0.167 -0.062,0.333 -0.062,0.5 L 0,0 Z M 0,13.588 C -0.081,13.336 -0.125,12.999 -0.125,12.58 l 0,-5.91 c 0,-0.17 0.018,-0.36 0.064,-0.567 C -0.02,5.893 0,5.702 0,5.538 l -2.639,0 c 0,0.164 0.019,0.355 0.062,0.565 0.041,0.207 0.061,0.397 0.061,0.567 l 0,5.91 c 0,0.167 -0.02,0.336 -0.061,0.505 -0.043,0.167 -0.062,0.334 -0.062,0.503 l 2.639,0 z" />
    </g>
    <g
       style="fill:#ffffff"
       transform="matrix(1.25,0,0,-1.25,-167.07468,417.04533)"
       id="g4324">
      <path
         id="path4326"
         style="fill:#ffffff;fill-opacity:1;fill-rule:nonzero;stroke:none"
         d="m 0,0 -0.882,0 c -0.503,0 -0.753,0.333 -0.753,1.005 l 0,48.935 c 0,0.67 0.25,1.006 0.753,1.006 l 0.882,0 c 0.586,0 0.88,-0.336 0.88,-1.006 l 0,-48.935 C 0.88,0.333 0.586,0 0,0" />
    </g>
    <g
       style="fill:#ffffff"
       transform="matrix(1.25,0,0,-1.25,-127.1358,383.39908)"
       id="g4328">
      <path
         id="path4330"
         style="fill:#ffffff;fill-opacity:1;fill-rule:nonzero;stroke:none"
         d="m 0,0 c 0,2.268 -0.507,4.027 -1.513,5.287 -1.004,1.256 -2.559,1.885 -4.651,1.885 l -5.411,0 c -2.097,0 -3.649,-0.629 -4.654,-1.885 C -17.236,4.027 -17.736,2.268 -17.736,0 l 0,-7.296 L 0,-7.296 0,0 Z m 1.635,-10.187 -19.371,0 0,-6.541 c 0,-4.866 2.051,-7.296 6.161,-7.296 l 12.706,0 c 0.588,0 0.879,-0.339 0.879,-1.008 l 0,-0.88 c 0,-0.671 -0.291,-1.005 -0.879,-1.005 l -12.706,0 c -2.684,0 -4.779,0.879 -6.29,2.642 -1.506,1.76 -2.264,4.233 -2.264,7.421 l 0,16.854 c 0,3.188 0.758,5.662 2.264,7.424 1.511,1.759 3.606,2.642 6.29,2.642 l 5.411,0 c 2.683,0 4.78,-0.883 6.286,-2.642 C 1.635,5.662 2.391,3.188 2.391,0 l 0,-8.93 c 0,-0.839 -0.252,-1.257 -0.756,-1.257" />
    </g>
    <g
       style="fill:#ffffff"
       transform="matrix(1.25,0,0,-1.25,-108.11593,370.50533)"
       id="g4332">
      <path
         id="path4334"
         style="fill:#ffffff;fill-opacity:1;fill-rule:nonzero;stroke:none"
         d="m 0,0 c -0.082,-0.167 -0.122,-0.5 -0.122,-1.003 l 0,-35.224 c 0,-0.166 0.018,-0.336 0.061,-0.503 C -0.02,-36.898 0,-37.068 0,-37.232 c 0.086,0 0.17,-0.041 0.252,-0.125 0.084,-0.083 0.129,-0.042 0.129,0.125 l -3.02,0 0.125,0.502 0,0.503 0,35.224 c 0,0.167 -0.019,0.331 -0.064,0.503 -0.043,0.167 -0.061,0.333 -0.061,0.5 L 0,0 Z M 0,13.588 C -0.082,13.336 -0.122,12.999 -0.122,12.58 l 0,-5.91 c 0,-0.17 0.018,-0.36 0.061,-0.567 C -0.02,5.893 0,5.702 0,5.538 l -2.639,0 c 0,0.164 0.018,0.355 0.061,0.565 0.045,0.207 0.064,0.397 0.064,0.567 l 0,5.91 c 0,0.167 -0.019,0.336 -0.064,0.505 -0.043,0.167 -0.061,0.334 -0.061,0.503 l 2.639,0 z" />
    </g>
    <g
       style="fill:#ffffff"
       transform="matrix(1.25,0,0,-1.25,-83.268555,374.43358)"
       id="g4336">
      <path
         id="path4338"
         style="fill:#ffffff;fill-opacity:1;fill-rule:nonzero;stroke:none"
         d="M 0,0 -2.267,0 C -4.194,0 -5.661,-0.755 -6.668,-2.265 -7.675,-3.774 -8.18,-5.62 -8.18,-7.798 l 0,-25.161 c 0,-0.587 -0.062,-0.923 -0.185,-1.007 -0.126,-0.083 -0.276,-0.123 -0.44,-0.123 l -0.758,0 c -0.334,0 -0.502,0.373 -0.502,1.13 l 0,34.847 c 0,0.67 0.168,1.006 0.502,1.006 l 0.758,0 c 0.25,0 0.417,-0.126 0.502,-0.377 0.083,-0.254 0.292,-0.839 0.628,-1.76 1.425,0.834 2.493,1.4 3.206,1.696 0.714,0.294 1.49,0.441 2.33,0.441 L 0,2.894 C 0.08,2.894 0.209,2.809 0.376,2.642 0.544,2.47 0.629,2.222 0.629,1.888 l 0,-0.88 C 0.629,0.336 0.418,0 0,0" />
    </g>
    <g
       style="fill:#ffffff"
       transform="matrix(1.25,0,0,-1.25,-47.42018,377.5757)"
       id="g4340">
      <path
         id="path4342"
         style="fill:#ffffff;fill-opacity:1;fill-rule:nonzero;stroke:none"
         d="m 0,0 c -0.422,1.423 -1.512,2.262 -3.271,2.514 l -7.675,0 c -2.096,0 -3.647,-0.629 -4.655,-1.886 -1.004,-1.26 -1.507,-3.019 -1.507,-5.287 l 0,-16.727 c 0,-4.867 2.054,-7.297 6.162,-7.297 l 4.406,0 c 4.444,0 6.667,2.304 6.667,6.916 0,5.87 0.019,10.149 0.06,12.834 0.042,2.681 0.066,4.529 0.066,5.534 l 0,1.697 C 0.253,-1.157 0.166,-0.59 0,0 m 1.636,-31.576 -0.757,0 c -0.165,0 -0.313,0.082 -0.441,0.251 -0.123,0.167 -0.394,0.711 -0.815,1.635 -1.427,-0.673 -2.602,-1.155 -3.522,-1.445 -0.927,-0.298 -1.761,-0.441 -2.517,-0.441 l -4.53,0 c -2.684,0 -4.778,0.88 -6.289,2.642 -1.507,1.76 -2.264,4.233 -2.264,7.422 l 0,16.853 c 0,3.189 0.757,5.662 2.264,7.424 1.511,1.759 3.605,2.642 6.289,2.642 l 12.582,0 c 0.583,0 0.882,-0.336 0.882,-1.006 l 0,-34.846 c 0,-0.503 -0.064,-0.818 -0.192,-0.941 -0.125,-0.129 -0.358,-0.19 -0.69,-0.19" />
    </g>
    <g
       style="fill:#ffffff"
       transform="matrix(1.25,0,0,-1.25,21.13332,382.76858)"
       id="g4344">
      <path
         id="path4346"
         style="fill:#ffffff;fill-opacity:1;fill-rule:nonzero;stroke:none"
         d="m 0,0 c 0,4.613 -2.223,6.919 -6.664,6.919 l -4.405,0 c -2.1,0 -3.648,-0.631 -4.654,-1.885 -1.007,-1.26 -1.508,-3.019 -1.508,-5.284 l 0,-16.731 c 0,-2.265 0.501,-4.069 1.508,-5.408 1.006,-1.344 2.554,-2.016 4.654,-2.016 l 4.405,0 c 4.441,0 6.664,2.306 6.664,6.921 L 0,0 Z m 1.511,-27.421 -0.755,0 c -0.251,0 -0.44,0.123 -0.567,0.373 -0.128,0.255 -0.358,0.84 -0.692,1.766 -1.427,-0.926 -2.578,-1.511 -3.458,-1.766 -0.881,-0.25 -1.743,-0.373 -2.581,-0.373 l -4.527,0 c -2.683,0 -4.779,0.838 -6.29,2.513 -1.508,1.679 -2.263,4.279 -2.263,7.801 l 0,16.857 c 0,3.352 0.755,5.866 2.263,7.546 1.511,1.679 3.607,2.515 6.29,2.515 l 4.527,0 c 0.838,0 1.7,-0.124 2.581,-0.375 C -3.081,9.185 -1.76,8.51 0,7.425 l 0,15.094 c 0,0.669 0.252,1.005 0.756,1.005 l 0.755,0 c 0.585,0 0.88,-0.336 0.88,-1.005 l 0,-48.935 c 0,-0.672 -0.295,-1.005 -0.88,-1.005" />
    </g>
    <g
       style="fill:#ffffff"
       transform="matrix(1.25,0,0,-1.25,62.803195,383.39908)"
       id="g4348">
      <path
         id="path4350"
         style="fill:#ffffff;fill-opacity:1;fill-rule:nonzero;stroke:none"
         d="m 0,0 c 0,2.268 -0.504,4.027 -1.511,5.287 -1.004,1.256 -2.558,1.885 -4.654,1.885 l -5.41,0 c -2.096,0 -3.645,-0.629 -4.654,-1.885 C -17.235,4.027 -17.735,2.268 -17.735,0 l 0,-7.296 L 0,-7.296 0,0 Z m 1.636,-10.187 -19.371,0 0,-6.541 c 0,-4.866 2.051,-7.296 6.16,-7.296 l 12.706,0 c 0.588,0 0.879,-0.339 0.879,-1.008 l 0,-0.88 c 0,-0.671 -0.291,-1.005 -0.879,-1.005 l -12.706,0 c -2.683,0 -4.777,0.879 -6.287,2.642 -1.508,1.76 -2.265,4.233 -2.265,7.421 l 0,16.854 c 0,3.188 0.757,5.662 2.265,7.424 1.51,1.759 3.604,2.642 6.287,2.642 l 5.41,0 c 2.684,0 4.781,-0.883 6.29,-2.642 C 1.636,5.662 2.391,3.188 2.391,0 l 0,-8.93 c 0,-0.839 -0.252,-1.257 -0.755,-1.257" />
    </g>
  </g>
</svg>
